<svg xmlns="http://www.w3.org/2000/svg" width="168.772" height="40" viewBox="0 0 168.772 40">
  <g id="Logomark" transform="translate(-571.166 -383.914)">
    <g id="Typo" transform="translate(571.166 383.914)">
      <path id="Path_22295" data-name="Path 22295" d="M737.841,387.445c-1.968-2.343-5.067-3.531-9.21-3.531H709.764a5.083,5.083,0,0,0-3.991,2.176c-.047-.062-.094-.123-.144-.183a6.093,6.093,0,0,0-4.909-1.993H679.4a9.82,9.82,0,0,0-1.145.066l.014-.066H663.621a5.05,5.05,0,0,0-3.952,2.122l-.379.516a3.084,3.084,0,0,0-3.2-2.638h-8.35a4.183,4.183,0,0,0-.6.044l.009-.044H632.5a5.05,5.05,0,0,0-3.952,2.122l-.379.516a3.084,3.084,0,0,0-3.2-2.638h-8.35a5.107,5.107,0,0,0-4.115,2.357q-.054-.087-.113-.172c-.682-1-2.078-2.185-4.859-2.185H582.649a5.143,5.143,0,0,0-4.792,3.973l-6.607,32.055a3.143,3.143,0,0,0,3.154,3.973h25.064a8.519,8.519,0,0,0,5.8-2.161l.02-.018a3.093,3.093,0,0,0,3.095,2.179h8.35a5.143,5.143,0,0,0,4.792-3.973l.132-.64,1.145,2.742a3.1,3.1,0,0,0,2.985,1.87h22.062a5.142,5.142,0,0,0,4.792-3.973l.132-.641,1.145,2.741a3.094,3.094,0,0,0,2.986,1.872h38.926a4.868,4.868,0,0,0,3.094-1.2,3.19,3.19,0,0,0,2.6,1.2h18.867a16.9,16.9,0,0,0,10.584-3.375,16.172,16.172,0,0,0,5.851-9.916l2.72-13.2C740.415,393.186,739.843,389.828,737.841,387.445ZM608.616,403.5c-.024-.027-.046-.053-.071-.078l.1-.088Z" transform="translate(-571.166 -383.914)" fill="#043166"/>
      <path id="Path_22296" data-name="Path 22296" d="M717.735,437.189a1.428,1.428,0,0,1-1.434-1.806l6.607-32.055a2.337,2.337,0,0,1,2.178-1.806h18.867c3.566,0,6.2.986,7.836,2.931s2.1,4.789,1.353,8.413l-2.72,13.2a13.541,13.541,0,0,1-4.818,8.319,14.373,14.373,0,0,1-9,2.806Zm17.612-10.1a4.493,4.493,0,0,0,2.4-.537,2.694,2.694,0,0,0,.946-1.8l2.223-10.786c.189-.915.12-1.521-.2-1.8a3.394,3.394,0,0,0-2.174-.535H733.16l-3.187,15.46Zm-62.23,10.1a1.406,1.406,0,0,1-1.357-.85l-3.827-9.165-1.692,8.209a2.337,2.337,0,0,1-2.178,1.806h-8.349a1.505,1.505,0,0,1-.959-.32l-.066.32H642a1.407,1.407,0,0,1-1.357-.85l-3.827-9.165-1.692,8.209a2.337,2.337,0,0,1-2.178,1.806H624.6a1.428,1.428,0,0,1-1.434-1.806l6.607-32.055a2.337,2.337,0,0,1,2.178-1.806h8.35a1.428,1.428,0,0,1,1.434,1.806l-1.442,7,5.741-7.837a2.3,2.3,0,0,1,1.8-.965h12.479l-.352,1.71-13.138,15.4,7.68,15.7,6.391-31.007a2.337,2.337,0,0,1,2.178-1.806h8.349a1.428,1.428,0,0,1,1.434,1.806l-1.442,7,5.741-7.837a2.3,2.3,0,0,1,1.8-.965h12.479l-.2.955a6.439,6.439,0,0,1,3.5-.955h21.322a4.323,4.323,0,0,1,3.526,1.38,4.452,4.452,0,0,1,.636,3.868l-1.428,6.928a8.657,8.657,0,0,1-.438,1.5,5.678,5.678,0,0,1-.762,1.331,6.869,6.869,0,0,1-1.144,1.148c-.388.312-.842.648-1.386,1.026L703.4,426.954h10.75a1.428,1.428,0,0,1,1.434,1.806l-1.365,6.623a2.337,2.337,0,0,1-2.178,1.806Zm10.161-7.625L707.046,413l.329-1.6h-8.061l-.8,3.859H686.644l1.746-8.47q.062-.3.142-.588l-10.6,12.425Zm-92.659,7.625a1.428,1.428,0,0,1-1.434-1.806l6.607-32.055a2.337,2.337,0,0,1,2.178-1.806h24.891a3.826,3.826,0,0,1,3.39,1.459,4.842,4.842,0,0,1,.468,3.79l-1.365,6.621a6.922,6.922,0,0,1-1.314,2.993,7.664,7.664,0,0,1-2.448,1.933l-1.236.645,1.1.665a4.041,4.041,0,0,1,1.75,1.892,5.157,5.157,0,0,1,.109,3.009l-1.527,7.41a6.8,6.8,0,0,1-2.061,3.8,5.866,5.866,0,0,1-4.048,1.451Zm20.1-9.577.618-3-1.858-1.282h-5.853l-.882,4.279Zm.439-12.891,2.255-1.439.45-2.182h-7.715l-.746,3.621Z" transform="translate(-586.935 -399.356)" fill="#225eb8"/>
      <path id="Path_22297" data-name="Path 22297" d="M1376.313,437.189a1.428,1.428,0,0,1-1.433-1.806l6.607-32.055a2.337,2.337,0,0,1,2.178-1.806h18.867c3.566,0,6.2.986,7.836,2.931s2.1,4.789,1.354,8.413l-2.721,13.2a13.537,13.537,0,0,1-4.819,8.319,14.369,14.369,0,0,1-9,2.806Zm17.612-10.1a4.492,4.492,0,0,0,2.4-.537,2.693,2.693,0,0,0,.946-1.8l2.223-10.786c.188-.915.119-1.521-.2-1.8a3.394,3.394,0,0,0-2.174-.535h-5.375l-3.187,15.46Zm-53.786,10.1,1.548-7.508L1365.624,413l.329-1.6h-8.061l-.8,3.859h-11.875l1.746-8.47a6.54,6.54,0,0,1,2.231-3.883,6.321,6.321,0,0,1,4.1-1.39h21.322a4.323,4.323,0,0,1,3.526,1.38,4.452,4.452,0,0,1,.636,3.868l-1.428,6.928a8.73,8.73,0,0,1-.438,1.5,5.681,5.681,0,0,1-.762,1.331,6.874,6.874,0,0,1-1.144,1.148c-.388.312-.842.648-1.386,1.026l-11.644,8.247h10.75a1.428,1.428,0,0,1,1.433,1.806l-1.365,6.623a2.337,2.337,0,0,1-2.178,1.806Z" transform="translate(-1245.513 -399.356)" fill="#225eb8"/>
      <path id="Path_22298" data-name="Path 22298" d="M1385.208,422.715a4.279,4.279,0,0,1-.576,1.008,5.4,5.4,0,0,1-.9.9q-.545.439-1.3.965l-14.362,10.173h13.754a.571.571,0,0,1,.573.722l-1.365,6.623a.934.934,0,0,1-.871.722h-29.4l1.218-5.909,23.937-16.678.659-3.2h-10.228l-.8,3.859h-9.708l1.522-7.386a5.2,5.2,0,0,1,1.746-3.109,5.026,5.026,0,0,1,3.278-1.08h21.322a3.466,3.466,0,0,1,2.834,1.074,3.564,3.564,0,0,1,.467,3.091l-1.428,6.928A7.549,7.549,0,0,1,1385.208,422.715Zm27.718,18.591a13.053,13.053,0,0,1-8.212,2.521h-18.867a.571.571,0,0,1-.573-.722l6.607-32.055a.934.934,0,0,1,.871-.722h18.867q4.94,0,7.15,2.631t1.18,7.629l-2.72,13.2A12.174,12.174,0,0,1,1412.926,441.306Zm-3.041-19.621q.4-1.929-.467-2.675a4.207,4.207,0,0,0-2.772-.745h-6.458l-3.633,17.627h6.458a5.662,5.662,0,0,0,3.079-.746,3.918,3.918,0,0,0,1.57-2.675Z" transform="translate(-1254.824 -407.078)" fill="#fff"/>
      <path id="Path_22299" data-name="Path 22299" d="M673.119,437.189a1.407,1.407,0,0,1-1.358-.85l-3.827-9.165-1.692,8.209a2.337,2.337,0,0,1-2.178,1.806h-8.35a1.5,1.5,0,0,1-.959-.32l-.066.32H642a1.408,1.408,0,0,1-1.358-.85l-3.827-9.165-1.692,8.209a2.337,2.337,0,0,1-2.178,1.806H624.6a1.429,1.429,0,0,1-1.434-1.806l6.607-32.055a2.337,2.337,0,0,1,2.178-1.806h8.35a1.428,1.428,0,0,1,1.433,1.806l-1.442,7,5.741-7.837a2.3,2.3,0,0,1,1.8-.965h12.479l-.353,1.71-13.138,15.4,7.68,15.7,6.391-31.007a2.337,2.337,0,0,1,2.178-1.806h8.35a1.428,1.428,0,0,1,1.434,1.806l-1.442,7,5.741-7.837a2.3,2.3,0,0,1,1.8-.965h13.585l-14.6,17.11,9.075,18.556h-13.89Zm-82.5,0a1.428,1.428,0,0,1-1.433-1.806l6.607-32.055a2.337,2.337,0,0,1,2.178-1.806h24.891a3.826,3.826,0,0,1,3.391,1.459,4.844,4.844,0,0,1,.468,3.79l-1.365,6.621a6.922,6.922,0,0,1-1.315,2.993,7.66,7.66,0,0,1-2.448,1.933l-1.236.645,1.1.665a4.041,4.041,0,0,1,1.75,1.892,5.156,5.156,0,0,1,.109,3.009l-1.527,7.41a6.8,6.8,0,0,1-2.061,3.8,5.866,5.866,0,0,1-4.048,1.451Zm20.1-9.577.618-3-1.858-1.282h-5.852l-.882,4.279Zm.439-12.891,2.255-1.439.45-2.182h-7.715l-.746,3.621Z" transform="translate(-586.937 -399.356)" fill="#ba7108"/>
      <path id="Path_22300" data-name="Path 22300" d="M626.965,442.731a4.573,4.573,0,0,1-3.173,1.1H598.727a.571.571,0,0,1-.573-.722l6.607-32.055a.934.934,0,0,1,.871-.722h24.891a2.989,2.989,0,0,1,2.656,1.1,3.934,3.934,0,0,1,.342,3.069l-1.365,6.621a5.624,5.624,0,0,1-1.043,2.434,6.193,6.193,0,0,1-1.989,1.556l-3.108,1.622,2.621,1.579a3.248,3.248,0,0,1,1.422,1.513,4.2,4.2,0,0,1,.062,2.434l-1.527,7.41A5.464,5.464,0,0,1,626.965,442.731Zm-3.906-24.993h-9.882l-1.193,5.788h7.194l3.094-1.973Zm-2.624,13.987-2.542-1.754h-7.238l-1.329,6.446h10.141Zm29.131,11.762L644.4,431.111,641.925,443.1a.934.934,0,0,1-.871.722H632.7a.571.571,0,0,1-.574-.722l6.607-32.055a.934.934,0,0,1,.871-.722h8.35a.571.571,0,0,1,.573.722l-2.346,11.38,8.583-11.716a.921.921,0,0,1,.719-.386h11.4l-.063.307-13.429,15.741,8.384,17.144-.063.307h-11.6A.566.566,0,0,1,649.566,443.487Zm31.116,0-5.168-12.376L673.042,443.1a.934.934,0,0,1-.871.722h-8.35a.571.571,0,0,1-.573-.722l6.607-32.055a.934.934,0,0,1,.871-.722h8.35a.571.571,0,0,1,.573.722L677.3,422.43l8.583-11.716a.921.921,0,0,1,.719-.386H698l-.063.307-13.429,15.741,8.384,17.144-.063.307h-11.6A.566.566,0,0,1,680.682,443.487Z" transform="translate(-594.819 -407.078)" fill="#ffc31a"/>
    </g>
  </g>
</svg>
